<svg width="22" height="17" viewBox="0 0 22 17" fill="none" xmlns="http://www.w3.org/2000/svg">
<path d="M9.35402 1.00549C9.62054 1.2847 9.74846 1.62208 9.7378 2.01763C9.72625 2.41318 9.58722 2.75056 9.32071 3.02977L5.55621 6.97363L20.4143 6.97363C20.7919 6.97363 21.1086 7.10766 21.3644 7.3757C21.6194 7.64281 21.7469 7.97414 21.7469 8.36969C21.7469 8.76524 21.6194 9.09704 21.3644 9.36508C21.1086 9.63219 20.7919 9.76575 20.4143 9.76575L5.55621 9.76575L9.35402 13.7445C9.62054 14.0237 9.75379 14.3555 9.75379 14.7399C9.75379 15.1234 9.62054 15.4547 9.35402 15.7339C9.08751 16.0131 8.7708 16.1527 8.4039 16.1527C8.03789 16.1527 7.72163 16.0131 7.45511 15.7339L1.35863 9.34693C1.22537 9.20732 1.13076 9.05608 1.07479 8.89321C1.01971 8.73034 0.992169 8.55583 0.992169 8.36969C0.992169 8.18355 1.01971 8.00904 1.07479 7.84617C1.13076 7.6833 1.22537 7.53206 1.35863 7.39245L7.48843 0.970589C7.73273 0.714645 8.03789 0.586671 8.4039 0.586671C8.7708 0.586671 9.08751 0.726278 9.35402 1.00549V1.00549Z" fill="black"/>
</svg>
