<svg width="21" height="17" viewBox="0 0 21 17" fill="none" xmlns="http://www.w3.org/2000/svg">
<path d="M12.5584 15.7336C12.2919 15.4544 12.164 15.1171 12.1746 14.7215C12.1862 14.326 12.3252 13.9886 12.5917 13.7094L16.3562 9.7655L1.49809 9.7655C1.12053 9.7655 0.803827 9.63148 0.547974 9.36344C0.29301 9.09632 0.165527 8.76499 0.165527 8.36944C0.165527 7.97389 0.29301 7.6421 0.547974 7.37405C0.803827 7.10694 1.12053 6.97339 1.49809 6.97339L16.3562 6.97339L12.5584 2.99462C12.2919 2.71541 12.1586 2.38362 12.1586 1.99924C12.1586 1.61578 12.2919 1.28445 12.5584 1.00524C12.8249 0.726031 13.1416 0.586426 13.5085 0.586426C13.8745 0.586426 14.1908 0.726031 14.4573 1.00524L20.5538 7.3922C20.687 7.53181 20.7817 7.68305 20.8376 7.84592C20.8927 8.0088 20.9202 8.1833 20.9202 8.36944C20.9202 8.55559 20.8927 8.73009 20.8376 8.89297C20.7817 9.05584 20.687 9.20708 20.5538 9.34668L14.424 15.7685C14.1797 16.0245 13.8745 16.1525 13.5085 16.1525C13.1416 16.1525 12.8249 16.0129 12.5584 15.7336V15.7336Z" fill="black"/>
</svg>
