<svg width="20" height="14" viewBox="0 0 20 14" fill="none" xmlns="http://www.w3.org/2000/svg">
<path d="M15.2868 13.3813C14.9164 13.2769 14.6369 13.0574 14.4484 12.7227C14.2606 12.3877 14.2123 12.0398 14.3035 11.679L15.5917 6.58317L2.72423 13.7291C2.39725 13.9107 2.05596 13.9513 1.70037 13.8511C1.346 13.7512 1.06994 13.5365 0.872161 13.207C0.674386 12.8775 0.618891 12.5398 0.705675 12.1939C0.793694 11.8484 1.00119 11.5848 1.32817 11.4032L14.1957 4.25729L8.91729 2.76944C8.54687 2.66503 8.26557 2.45272 8.07338 2.13253C7.88166 1.81311 7.83139 1.47301 7.9226 1.11225C8.0138 0.751479 8.21827 0.482868 8.53601 0.306409C8.85299 0.130379 9.19669 0.0945674 9.5671 0.198978L18.0403 2.58737C18.2255 2.63958 18.3831 2.72006 18.513 2.82882C18.6421 2.938 18.7532 3.07013 18.8463 3.22518C18.9393 3.38024 19.0027 3.53886 19.0365 3.70102C19.0695 3.86362 19.0631 4.03511 19.0175 4.21549L16.9199 12.5131C16.8363 12.8438 16.636 13.0972 16.319 13.2732C16.0013 13.4497 15.6572 13.4857 15.2868 13.3813Z" fill="black"/>
</svg>
